<svg xmlns="http://www.w3.org/2000/svg" width="14" height="14" viewBox="0 0 14 14">
  <path id="パス_11" data-name="パス 11" d="M13.125,0a.875.875,0,0,1,0,1.75v10.5a.875.875,0,0,1,0,1.75H8.313V12.25H5.688V14H.875a.875.875,0,0,1,0-1.75V1.75A.875.875,0,0,1,.875,0ZM3.063,2.625a.439.439,0,0,0-.437.438v.875a.439.439,0,0,0,.438.438h.875a.439.439,0,0,0,.438-.438V3.063a.439.439,0,0,0-.438-.437ZM6.125,3.937a.439.439,0,0,0,.438.438h.875a.439.439,0,0,0,.438-.438V3.063a.439.439,0,0,0-.437-.437H6.563a.439.439,0,0,0-.437.438Zm3.938-1.312a.439.439,0,0,0-.437.438v.875a.439.439,0,0,0,.438.438h.875a.439.439,0,0,0,.438-.438V3.063a.439.439,0,0,0-.437-.437ZM2.625,6.563A.439.439,0,0,0,3.063,7h.875a.439.439,0,0,0,.438-.437V5.688a.439.439,0,0,0-.438-.437H3.063a.439.439,0,0,0-.437.438ZM6.563,5.25a.439.439,0,0,0-.437.438v.875A.439.439,0,0,0,6.563,7h.875a.439.439,0,0,0,.438-.437V5.688a.439.439,0,0,0-.437-.437ZM9.625,6.563A.439.439,0,0,0,10.063,7h.875a.439.439,0,0,0,.438-.437V5.688a.439.439,0,0,0-.437-.437h-.875a.439.439,0,0,0-.437.438ZM7,7.875A2.674,2.674,0,0,0,4.432,9.849a.574.574,0,0,0,.6.651H8.969a.545.545,0,0,0,.574-.651A2.623,2.623,0,0,0,7,7.875Z" fill="#3265ba"/>
</svg>
