<svg xmlns="http://www.w3.org/2000/svg" width="17" height="11.333" viewBox="0 0 17 11.333">
  <path id="パス_9" data-name="パス 9" d="M3.778,66.833h9.444V72.5H3.778ZM15.111,64A1.89,1.89,0,0,1,17,65.889V68.25a1.417,1.417,0,0,0,0,2.833v2.361a1.891,1.891,0,0,1-1.889,1.889H1.889A1.89,1.89,0,0,1,0,73.444V71.083a1.417,1.417,0,0,0,1.417-1.417A1.417,1.417,0,0,0,0,68.25V65.889A1.889,1.889,0,0,1,1.889,64ZM2.833,72.5a.943.943,0,0,0,.944.944h9.444a.943.943,0,0,0,.944-.944V66.833a.943.943,0,0,0-.944-.944H3.778a.943.943,0,0,0-.944.944Z" transform="translate(0 -64)" fill="#3265ba"/>
</svg>
