<svg xmlns="http://www.w3.org/2000/svg" width="14.818" height="14" viewBox="0 0 14.818 14">
  <path id="パス_31" data-name="パス 31" d="M39.438.453A.43.43,0,0,1,39.875,0a6.467,6.467,0,0,1,2.563.561A6.019,6.019,0,0,1,46,6.125a.446.446,0,0,1-.454.438H39.438ZM32,7.437a6.566,6.566,0,0,1,5.636-6.5.423.423,0,0,1,.489.42V7.875L42.4,12.154a.415.415,0,0,1-.041.634A6.564,6.564,0,0,1,32,7.437Zm14.394.438a.417.417,0,0,1,.421.465,6.555,6.555,0,0,1-2.021,3.891.441.441,0,0,1-.58-.016L39.875,7.875Z" transform="translate(-32)" fill="#3265ba"/>
</svg>
