<svg xmlns="http://www.w3.org/2000/svg" width="17.5" height="14" viewBox="0 0 17.5 14">
  <path id="パス_33" data-name="パス 33" d="M8.747,8.75A2.844,2.844,0,1,0,5.928,5.906,2.823,2.823,0,0,0,8.747,8.75Zm1.367.875H7.386A3.771,3.771,0,0,0,3.5,13.27a.753.753,0,0,0,.777.73h8.947A.753.753,0,0,0,14,13.27,3.771,3.771,0,0,0,10.114,9.625ZM14,4.375a2.188,2.188,0,1,0-2.187-2.187A2.188,2.188,0,0,0,14,4.375ZM5.029,5.906a3.643,3.643,0,0,1,.044-.435A1.98,1.98,0,0,0,4.1,5.25H2.408A2.483,2.483,0,0,0,0,7.8a.5.5,0,0,0,.482.511H5.937A3.683,3.683,0,0,1,5.029,5.906ZM3.5,4.375A2.188,2.188,0,1,0,1.313,2.188,2.188,2.188,0,0,0,3.5,4.375Zm11.591.875H13.4a2.28,2.28,0,0,0-.981.225,3.746,3.746,0,0,1,.044.431,3.686,3.686,0,0,1-.907,2.406h5.461A.5.5,0,0,0,17.5,7.8,2.483,2.483,0,0,0,15.091,5.25Z" fill="#3265ba"/>
</svg>
