<svg xmlns="http://www.w3.org/2000/svg" width="10.5" height="14" viewBox="0 0 10.5 14">
  <path id="パス_30" data-name="パス 30" d="M7,0V3.5h3.5ZM6.125,3.5V0H1.313A1.312,1.312,0,0,0,0,1.313V12.688A1.313,1.313,0,0,0,1.313,14H9.188A1.312,1.312,0,0,0,10.5,12.688V4.375H7.025A.88.88,0,0,1,6.125,3.5Zm1.312,7.875H3.063a.438.438,0,0,1,0-.875H7.437a.438.438,0,0,1,0,.875Zm0-1.75H3.063a.438.438,0,0,1,0-.875H7.437a.438.438,0,0,1,0,.875Zm.438-2.188a.439.439,0,0,1-.437.438H3.063a.437.437,0,1,1,0-.875H7.437A.439.439,0,0,1,7.875,7.437Z" fill="#3265ba"/>
</svg>
