<svg xmlns="http://www.w3.org/2000/svg" width="14" height="14" viewBox="0 0 14 14">
  <path id="パス_8" data-name="パス 8" d="M6.561.116a.877.877,0,0,1,.87,0L12.126,2.8l.1.044v.025l1.334.746A.876.876,0,0,1,13.1,5.25H.847a.876.876,0,0,1-.41-1.635l1.285-.746V2.844L1.866,2.8ZM1.746,6.125H3.5v5.25H4.59V6.125H6.34v5.25H7.652V6.125H9.4v5.25H10.5V6.125h1.75v5.368c.016.008.033-.005.049.03l1.313.875a.875.875,0,0,1-.487,1.6H.871a.874.874,0,0,1-.485-1.6L1.7,11.523c.016-.036.032-.022.048-.03Z" transform="translate(0.004 0)" fill="#3265ba"/>
</svg>
