<svg xmlns="http://www.w3.org/2000/svg" width="17.5" height="14" viewBox="0 0 17.5 14">
  <path id="パス_35" data-name="パス 35" d="M11.624,13.2q-.094-.051-.186-.107l-.214.123a1.072,1.072,0,0,1-.54.146,1.092,1.092,0,0,1-.792-.349,5.04,5.04,0,0,1-1.1-1.911,1.057,1.057,0,0,1,.488-1.237L9.5,9.733q0-.108,0-.215L9.289,9.4a1.06,1.06,0,0,1-.537-.913,4.7,4.7,0,0,0-1.241-.171H4.739A4.742,4.742,0,0,0,0,13.054.947.947,0,0,0,.948,14H11.3a.925.925,0,0,0,.428-.115,1.053,1.053,0,0,1-.106-.439ZM6.125,7a3.5,3.5,0,1,0-3.5-3.5A3.5,3.5,0,0,0,6.125,7Zm10.568,3.207a3.163,3.163,0,0,0,0-1.162l.7-.41A.2.2,0,0,0,17.49,8.4a4.153,4.153,0,0,0-.909-1.569.2.2,0,0,0-.246-.038l-.7.407a3.2,3.2,0,0,0-1.008-.581V5.805a.2.2,0,0,0-.157-.191,4.1,4.1,0,0,0-1.812,0,.2.2,0,0,0-.154.191v.817a3.2,3.2,0,0,0-1.008.581l-.707-.408a.2.2,0,0,0-.246.038A4.1,4.1,0,0,0,9.632,8.4a.2.2,0,0,0,.089.232l.7.41a3.318,3.318,0,0,0,0,1.162l-.7.41a.2.2,0,0,0-.089.232,4.128,4.128,0,0,0,.906,1.569.2.2,0,0,0,.246.038l.708-.407a3.2,3.2,0,0,0,1.008.581v.817a.2.2,0,0,0,.154.191,4.1,4.1,0,0,0,1.812,0,.2.2,0,0,0,.157-.191V12.63a3.2,3.2,0,0,0,1.008-.581l.7.407a.2.2,0,0,0,.246-.038,4.153,4.153,0,0,0,.909-1.569.2.2,0,0,0-.092-.232Zm-3.131.744a1.326,1.326,0,1,1,1.326-1.326A1.327,1.327,0,0,1,13.563,10.951Z" fill="#3265ba"/>
</svg>
