<svg xmlns="http://www.w3.org/2000/svg" width="14" height="14" viewBox="0 0 14 14">
  <path id="パス_10" data-name="パス 10" d="M39,0c3.675,0,6.125.962,6.125,2.188V3.5A.874.874,0,0,1,46,4.375v1.75A.874.874,0,0,1,45.125,7v4.375a.874.874,0,0,1-.875.875v.875a.874.874,0,0,1-.875.875H42.5a.874.874,0,0,1-.875-.875V12.25h-5.25v.875A.874.874,0,0,1,35.5,14h-.875a.874.874,0,0,1-.875-.875V12.25a.875.875,0,0,1-.875-.875V7A.875.875,0,0,1,32,6.125V4.375a.875.875,0,0,1,.875-.875V2.188C32.875.962,35.325,0,39,0ZM34.625,7a.874.874,0,0,0,.875.875h3.063V3.5H35.5a.874.874,0,0,0-.875.875Zm4.813.875H42.5A.874.874,0,0,0,43.375,7V4.375A.874.874,0,0,0,42.5,3.5H39.438Zm-4.375,3.063a.875.875,0,1,0-.875-.875A.874.874,0,0,0,35.063,10.938Zm7.875,0a.875.875,0,1,0-.875-.875A.874.874,0,0,0,42.938,10.938ZM41.188,1.75H36.813a.438.438,0,0,0,0,.875h4.375a.438.438,0,0,0,0-.875Z" transform="translate(-32)" fill="#3265ba"/>
</svg>
