<svg xmlns="http://www.w3.org/2000/svg" width="14" height="14" viewBox="0 0 14 14">
  <path id="パス_32" data-name="パス 32" d="M4.156,0h.06A2.466,2.466,0,0,1,6.341,1.215L7,2.337l.659-1.121A2.466,2.466,0,0,1,9.784,0h.06A2.406,2.406,0,0,1,12.25,2.406,2.488,2.488,0,0,1,11.987,3.5h1.138A.874.874,0,0,1,14,4.375v1.75A.874.874,0,0,1,13.125,7H.875A.875.875,0,0,1,0,6.125V4.375A.875.875,0,0,1,.875,3.5H2.012A2.473,2.473,0,0,1,1.75,2.406,2.406,2.406,0,0,1,4.156,0ZM5.209,1.881a1.154,1.154,0,0,0-.993-.568h-.06a1.094,1.094,0,0,0,0,2.188h2Zm4.635-.568h-.06a1.154,1.154,0,0,0-.993.568L7.839,3.5h2a1.094,1.094,0,0,0,0-2.188ZM.875,7.875h5.25V14H2.188A1.313,1.313,0,0,1,.875,12.688Zm7,6.125V7.875h5.25v4.813A1.313,1.313,0,0,1,11.813,14Z" fill="#3265ba"/>
</svg>
