<svg xmlns="http://www.w3.org/2000/svg" width="19" height="12" viewBox="0 0 19 12">
  <path id="パス_627" data-name="パス 627" d="M9.223,35.439c.092-.008.185-.011.277-.011,1.748,0,3.167,1.128,3.167,2.571A2.917,2.917,0,0,1,9.5,40.571c-1.778,0-3.167-1.152-3.167-2.571a1.716,1.716,0,0,1,.013-.225A2.87,2.87,0,0,0,7.389,38,1.946,1.946,0,0,0,9.5,36.286,1.688,1.688,0,0,0,9.223,35.439Zm6.631-1.28a10.658,10.658,0,0,1,3.065,3.512.706.706,0,0,1,0,.659,11.152,11.152,0,0,1-3.065,3.512,10.427,10.427,0,0,1-12.706,0A11.2,11.2,0,0,1,.081,38.329a.709.709,0,0,1,0-.659,10.7,10.7,0,0,1,3.067-3.512,10.427,10.427,0,0,1,12.706,0ZM9.5,34.143c-2.623,0-4.75,1.728-4.75,3.857s2.128,3.857,4.75,3.857,4.75-1.728,4.75-3.857S12.123,34.143,9.5,34.143Z" transform="translate(0 -32)"/>
</svg>
